PathFileType  4	(X/Y/Z) subject11/noload/static/trial01/expdata
DataRate	CameraRate	NumFrames	NumMarkers	Units	OrigDataRate	OrigDataStartFrame	OrigNumFrames
100.0	100.0	5	64	mm	100.0	216	287
Frame#	Time	R.Shoulder			L.Shoulder			R.Clavicle			L.Clavicle			R.Biceps			R.Elbow			R.MElbow			R.Forearm			R.Wrist			L.Biceps			L.Elbow			L.MElbow			L.Forearm			L.Wrist			R.ASIS			L.ASIS			R.PSIS			S2			L.PSIS			R.TH1			R.TH2			R.TH3			R.Knee			R.MKnee			R.SH1			R.SH2			R.SH3			R.SH4			R.Ankle			R.MAnkle			R.Heel			R.MT5			R.Toe			L.TH1			L.TH2			L.TH3			L.TH4			L.Knee			L.MKnee			L.SH1			L.SH2			L.SH3			L.Ankle			L.MAnkle			L.Heel			L.MT5			L.Toe			R_HJC			L_HJC			L.HeelGround			L.ToeGround			L.MT5Ground			L.AnkleJoint			L.AnkleJointGround			L.KneeJoint			R.HeelGround			R.ToeGround			R.MT5Ground			R.AnkleJoint			R.AnkleJointGround			R.KneeJoint			MidASIS			MidPSIS			MidClavicle			
		X1	Y1	Z1	X2	Y2	Z2	X3	Y3	Z3	X4	Y4	Z4	X5	Y5	Z5	X6	Y6	Z6	X7	Y7	Z7	X8	Y8	Z8	X9	Y9	Z9	X10	Y10	Z10	X11	Y11	Z11	X12	Y12	Z12	X13	Y13	Z13	X14	Y14	Z14	X15	Y15	Z15	X16	Y16	Z16	X17	Y17	Z17	X18	Y18	Z18	X19	Y19	Z19	X20	Y20	Z20	X21	Y21	Z21	X22	Y22	Z22	X23	Y23	Z23	X24	Y24	Z24	X25	Y25	Z25	X26	Y26	Z26	X27	Y27	Z27	X28	Y28	Z28	X29	Y29	Z29	X30	Y30	Z30	X31	Y31	Z31	X32	Y32	Z32	X33	Y33	Z33	X34	Y34	Z34	X35	Y35	Z35	X36	Y36	Z36	X37	Y37	Z37	X38	Y38	Z38	X39	Y39	Z39	X40	Y40	Z40	X41	Y41	Z41	X42	Y42	Z42	X43	Y43	Z43	X44	Y44	Z44	X45	Y45	Z45	X46	Y46	Z46	X47	Y47	Z47	X48	Y48	Z48	X49	Y49	Z49	X50	Y50	Z50	X51	Y51	Z51	X52	Y52	Z52	X53	Y53	Z53	X54	Y54	Z54	X55	Y55	Z55	X56	Y56	Z56	X57	Y57	Z57	X58	Y58	Z58	X59	Y59	Z59	X60	Y60	Z60	X61	Y61	Z61	X62	Y62	Z62	X63	Y63	Z63	X64	Y64	Z64	

216	2.15000	455.083	1567.027	-264.888	739.595	1569.508	-254.179	564.859	1495.064	-181.439	618.058	1493.298	-178.047	243.336	1499.277	-259.357	140.850	1512.945	-284.864	158.329	1452.522	-351.703	136.315	1383.980	-195.216	123.011	1279.388	-135.753	925.077	1524.648	-242.746	1046.461	1499.255	-236.863	1035.458	1435.859	-302.051	1051.046	1390.251	-134.307	1044.704	1299.959	-69.114	453.760	1033.929	-163.848	710.584	1023.117	-158.724	542.997	1035.899	-369.924	586.064	1013.542	-381.012	632.449	1031.519	-367.795	372.856	800.413	-203.463	375.390	789.922	-312.165	391.490	661.064	-308.728	398.435	528.914	-264.870	528.550	502.364	-250.724	383.090	434.789	-256.079	370.311	323.344	-264.899	386.537	436.264	-340.221	380.240	316.397	-349.308	387.652	112.466	-305.286	473.030	110.467	-279.519	435.904	36.626	-377.659	340.588	39.392	-193.635	431.100	56.319	-78.179	792.544	824.653	-176.943	766.971	697.155	-166.967	805.764	825.956	-283.006	779.719	693.059	-285.022	758.879	531.728	-248.640	627.320	505.996	-267.519	759.736	422.804	-227.964	789.846	446.201	-318.929	797.565	330.659	-337.512	797.323	116.553	-296.190	710.709	111.853	-289.512	755.501	35.335	-384.803	838.275	36.682	-193.741	743.018	58.380	-89.648	471.683	941.085	-259.065	686.393	936.035	-250.419	755.501	0.000	-384.803	743.018	0.000	-89.648	838.275	0.000	-193.741	754.016	114.203	-292.851	754.016	0.000	-292.851	693.100	518.862	-258.079	435.904	0.000	-377.659	431.100	0.000	-78.179	340.588	0.000	-193.635	430.341	111.466	-292.403	430.341	0.000	-292.403	463.492	515.639	-257.797	582.172	1028.523	-161.286	587.723	1033.709	-368.860	591.458	1494.181	-179.743
217	2.16000	454.981	1566.749	-265.294	739.215	1569.118	-254.592	564.653	1495.128	-181.657	616.884	1494.075	-177.411	243.308	1498.781	-260.010	140.597	1512.200	-285.635	158.465	1451.524	-352.366	135.931	1383.319	-195.721	122.892	1278.622	-136.308	924.900	1524.474	-242.915	1046.211	1498.975	-237.053	1035.315	1435.648	-302.090	1050.554	1390.098	-134.364	1043.954	1299.946	-68.979	453.644	1033.910	-163.388	710.483	1023.147	-158.102	543.028	1035.754	-369.379	586.089	1013.471	-380.491	632.504	1031.410	-367.285	372.892	800.397	-203.077	375.431	789.973	-311.797	391.561	661.155	-308.476	398.324	529.031	-264.660	528.499	502.220	-250.093	383.136	434.775	-255.967	370.284	323.471	-264.755	386.665	436.334	-340.026	380.413	316.440	-349.198	387.667	112.511	-305.253	473.015	110.491	-279.514	435.924	36.663	-377.654	340.620	39.541	-193.617	431.142	56.315	-78.138	792.519	824.651	-176.446	766.827	697.115	-166.628	805.846	825.911	-282.441	779.672	693.025	-284.666	758.717	531.717	-248.578	627.718	505.932	-267.486	759.839	422.938	-227.964	789.944	446.265	-318.999	797.813	330.900	-337.585	797.329	116.572	-296.163	710.732	111.938	-289.487	755.434	35.419	-384.826	838.266	36.649	-193.718	743.133	58.329	-89.628	471.661	941.016	-258.557	686.366	936.012	-249.778	755.434	0.000	-384.826	743.133	0.000	-89.628	838.266	0.000	-193.718	754.030	114.255	-292.825	754.030	0.000	-292.825	693.217	518.824	-258.032	435.924	0.000	-377.654	431.142	0.000	-78.138	340.620	0.000	-193.617	430.341	111.501	-292.384	430.341	0.000	-292.384	463.412	515.625	-257.377	582.063	1028.529	-160.745	587.766	1033.582	-368.332	590.769	1494.601	-179.534
218	2.17000	454.617	1566.613	-265.853	738.988	1569.125	-254.848	564.517	1495.297	-181.804	616.769	1494.147	-177.540	243.160	1498.204	-260.560	140.540	1511.336	-286.270	158.548	1450.732	-353.015	135.562	1382.644	-196.318	122.695	1277.904	-136.970	924.935	1524.282	-243.091	1046.200	1498.702	-237.230	1035.342	1435.174	-302.175	1050.331	1390.041	-134.416	1043.446	1300.064	-68.811	453.762	1033.832	-162.866	710.477	1023.133	-157.594	543.138	1035.674	-368.878	586.210	1013.417	-379.986	632.584	1031.480	-366.736	373.058	800.383	-202.722	375.416	789.982	-311.533	391.633	661.285	-308.234	398.217	529.148	-264.508	528.607	502.373	-249.746	383.180	434.755	-255.880	370.284	323.444	-264.610	386.691	436.373	-339.917	380.454	316.571	-349.122	387.661	112.540	-305.259	472.972	110.649	-279.431	436.044	36.701	-377.665	340.532	39.592	-193.638	431.111	56.323	-78.139	792.518	824.468	-176.058	766.753	696.923	-166.437	805.698	825.858	-282.064	779.915	693.144	-284.367	758.878	531.796	-248.688	627.521	506.007	-267.621	759.797	422.924	-228.097	789.870	446.322	-319.107	797.581	330.769	-337.752	797.308	116.643	-296.138	710.777	111.975	-289.466	755.459	35.450	-384.823	838.263	36.711	-193.742	743.156	58.377	-89.600	471.775	940.937	-258.066	686.481	936.016	-249.257	755.459	0.000	-384.823	743.156	0.000	-89.600	838.263	0.000	-193.742	754.043	114.309	-292.802	754.043	0.000	-292.802	693.199	518.902	-258.154	436.044	0.000	-377.665	431.111	0.000	-78.139	340.532	0.000	-193.638	430.317	111.595	-292.345	430.317	0.000	-292.345	463.412	515.760	-257.127	582.120	1028.483	-160.230	587.861	1033.577	-367.807	590.643	1494.722	-179.672
219	2.18000	454.418	1566.388	-266.417	738.879	1569.137	-255.089	564.150	1495.531	-182.040	615.383	1494.019	-176.767	242.878	1497.644	-261.149	140.384	1510.479	-287.191	158.373	1449.743	-353.685	135.203	1381.996	-197.054	122.765	1277.431	-137.728	924.867	1524.088	-243.332	1046.182	1498.354	-237.619	1034.887	1434.520	-302.476	1049.783	1389.883	-134.514	1043.126	1300.063	-68.670	453.878	1033.749	-162.339	710.436	1022.979	-157.022	543.252	1035.504	-368.350	586.105	1013.349	-379.454	632.632	1031.327	-366.135	373.088	800.380	-202.545	375.603	790.018	-311.312	391.791	661.266	-308.020	398.119	529.188	-264.380	528.570	502.384	-249.656	383.224	434.777	-255.828	370.376	323.402	-264.487	386.720	436.413	-339.853	380.518	316.632	-349.082	387.740	112.535	-305.172	472.965	110.640	-279.442	435.987	36.765	-377.649	340.605	39.482	-193.631	431.056	56.380	-78.141	792.457	824.461	-175.774	766.516	696.705	-166.361	805.680	825.876	-281.769	779.833	693.265	-284.320	758.989	531.870	-248.938	627.471	505.989	-267.657	759.792	423.138	-228.374	790.058	446.343	-319.396	797.583	330.937	-337.894	797.312	116.660	-296.123	710.786	112.052	-289.476	755.411	35.487	-384.829	838.257	36.719	-193.725	743.113	58.452	-89.582	471.772	940.849	-257.515	686.477	935.859	-248.698	755.411	0.000	-384.829	743.113	0.000	-89.582	838.257	0.000	-193.725	754.049	114.356	-292.799	754.049	0.000	-292.799	693.230	518.929	-258.298	435.987	0.000	-377.649	431.056	0.000	-78.141	340.605	0.000	-193.631	430.352	111.588	-292.307	430.352	0.000	-292.307	463.345	515.786	-257.018	582.157	1028.364	-159.680	587.942	1033.416	-367.243	589.766	1494.775	-179.404
220	2.19000	454.338	1566.040	-266.925	738.774	1569.126	-255.379	564.089	1495.770	-182.141	615.377	1494.158	-176.895	242.790	1497.087	-261.892	140.397	1509.565	-288.156	158.821	1448.824	-354.634	135.087	1381.162	-197.796	122.139	1276.870	-138.510	924.803	1523.881	-243.776	1046.042	1497.898	-238.141	1034.709	1433.900	-302.763	1049.444	1389.807	-134.706	1042.810	1300.077	-68.568	453.788	1033.722	-161.829	710.634	1023.011	-156.536	543.432	1035.607	-367.902	586.314	1013.446	-378.946	632.508	1031.288	-365.588	373.156	800.460	-202.370	375.523	790.184	-311.071	391.822	661.354	-307.881	398.128	529.211	-264.309	528.550	502.364	-249.621	383.237	434.796	-255.787	370.382	323.431	-264.462	386.719	436.435	-339.805	380.519	316.647	-349.058	387.759	112.557	-305.189	473.036	110.709	-279.459	436.008	36.808	-377.652	340.638	39.547	-193.620	431.045	56.370	-78.131	792.500	824.344	-175.682	766.554	696.582	-166.392	805.508	825.866	-281.561	779.805	693.302	-284.354	758.591	531.724	-249.365	627.355	505.967	-267.739	759.864	423.376	-228.654	790.060	446.388	-319.663	797.639	330.879	-338.115	797.287	116.709	-296.137	710.808	112.083	-289.464	755.430	35.528	-384.819	838.254	36.705	-193.714	743.162	58.446	-89.586	471.855	940.860	-257.051	686.559	935.896	-248.208	755.430	0.000	-384.819	743.162	0.000	-89.586	838.254	0.000	-193.714	754.048	114.396	-292.800	754.048	0.000	-292.800	692.973	518.846	-258.552	436.008	0.000	-377.652	431.045	0.000	-78.131	340.638	0.000	-193.620	430.398	111.633	-292.324	430.398	0.000	-292.324	463.339	515.788	-256.965	582.211	1028.367	-159.183	587.970	1033.447	-366.745	589.733	1494.964	-179.518
